<svg xmlns="http://www.w3.org/2000/svg" fill="none" viewBox="0 0 36 36" width="36" height="36"><path fill="#339AF0" d="M35.815 18c0-9.941-8.017-18-17.907-18C8.017 0 0 8.059 0 18s8.017 18 17.907 18 17.907-8.059 17.907-18z"/><path fill="#fff" d="M14.573 9.508a1.377 1.377 0 0 0-.074 1.52 1.356 1.356 0 0 0 .357.394 8.063 8.063 0 0 1 3.283 6.52 8.063 8.063 0 0 1-3.283 6.52 1.357 1.357 0 0 0-.357.394 1.372 1.372 0 0 0-.153 1.036 1.372 1.372 0 0 0 .227.483 1.359 1.359 0 0 0 1.426.512 1.359 1.359 0 0 0 .481-.229 11.061 11.061 0 0 0 1.755-1.632h3.863c.752 0 1.364-.612 1.364-1.368s-.61-1.368-1.364-1.368h-2.132a10.859 10.859 0 0 0 .899-4.349 10.859 10.859 0 0 0-.899-4.349h2.133c.752 0 1.363-.612 1.363-1.368 0-.756-.61-1.368-1.363-1.368h-3.862a11.068 11.068 0 0 0-1.756-1.634 1.358 1.358 0 0 0-1.011-.255 1.367 1.367 0 0 0-.896.538h-.001z"/><path fill="#fff" fill-rule="evenodd" d="M12.42 17.534a2.063 2.063 0 0 1 .14-.797 2.046 2.046 0 0 1 .434-.68 2.019 2.019 0 0 1 .661-.456 2.001 2.001 0 0 1 1.569 0 2.02 2.02 0 0 1 .661.456 2.046 2.046 0 0 1 .434.68 2.063 2.063 0 0 1-.469 2.209 2.008 2.008 0 0 1-1.411.581 2.008 2.008 0 0 1-1.411-.581 2.054 2.054 0 0 1-.608-1.412z" clip-rule="evenodd"/></svg>
