<svg xmlns="http://www.w3.org/2000/svg" width="36" height="36" viewBox="0 0 36 36" fill="none"><path d="M12.28 19.94c-1.16.329-1.921.906-2.422 1.483.48-.42 1.123-.806 1.991-1.052.887-.251 1.644-.249 2.269-.129v-.489a5.015 5.015 0 0 0-1.838.187Zm-2.475-4.111-4.307 1.135s.079.11.224.258l3.652-.962s-.052.667-.501 1.263c.85-.643.932-1.694.932-1.694Zm3.605 10.122c-6.061 1.633-9.268-5.392-10.238-9.037-.449-1.683-.645-2.958-.697-3.78a1.36 1.36 0 0 1 .003-.224c-.314.019-.465.183-.434.655.052.822.248 2.096.696 3.78.971 3.645 4.178 10.67 10.239 9.037 1.319-.355 2.311-1.003 3.055-1.829-.686.619-1.544 1.107-2.624 1.398Zm1.139-14.421v.431h2.378c-.049-.152-.098-.29-.147-.431h-2.231Z" fill="#2D4552"/><path d="M17.458 15.083c1.069.303 1.635 1.053 1.934 1.716l1.192.339s-.163-2.322-2.263-2.918c-1.964-.559-3.173 1.091-3.32 1.305.571-.408 1.406-.741 2.457-.442Zm9.49 1.727c-1.966-.561-3.175 1.092-3.32 1.303.572-.407 1.406-.74 2.457-.44 1.068.304 1.633 1.052 1.933 1.716l1.193.34s-.165-2.322-2.263-2.919Zm-1.184 6.122-9.918-2.773s.108.544.52 1.249l8.35 2.334c.687-.397 1.048-.81 1.048-.81Zm-6.876 5.967c-7.852-2.105-6.903-12.11-5.632-16.851.523-1.954 1.061-3.406 1.507-4.38-.267-.054-.487.086-.705.529-.473.96-1.079 2.524-1.665 4.713-1.27 4.741-2.22 14.746 5.632 16.851 3.702.992 6.585-.515 8.734-2.882-2.04 1.848-4.645 2.884-7.871 2.02Z" fill="#2D4552"/><path d="M14.549 23.607v-2.019l-5.609 1.59s.414-2.408 3.34-3.238c.887-.251 1.644-.25 2.269-.129V11.53h2.809c-.306-.945-.601-1.673-.85-2.178-.411-.837-.832-.282-1.789.518-.674.563-2.376 1.763-4.939 2.454-2.562.691-4.634.508-5.498.358-1.226-.211-1.866-.481-1.807.452.053.822.248 2.096.697 3.78.97 3.645 4.178 10.669 10.239 9.037 1.583-.427 2.701-1.27 3.475-2.345h-2.337v.001Zm-9.051-6.643 4.307-1.135s-.125 1.657-1.74 2.083c-1.616.425-2.567-.948-2.567-.948Z" fill="#E2574C"/><path d="M30.761 11.626c-1.12.196-3.806.44-7.126-.449-3.321-.89-5.524-2.445-6.397-3.176-1.237-1.037-1.781-1.757-2.317-.667-.474.961-1.079 2.525-1.665 4.714-1.271 4.741-2.22 14.746 5.632 16.851 7.85 2.103 12.03-7.036 13.3-11.778.586-2.188.843-3.846.914-4.915.081-1.21-.751-.859-2.341-.58Zm-15.776 3.922s1.237-1.925 3.336-1.328c2.1.597 2.263 2.918 2.263 2.918l-5.599-1.59Zm5.123 8.636c-3.692-1.081-4.261-4.025-4.261-4.025l9.917 2.773c0-.001-2.002 2.32-5.656 1.252Zm3.506-6.049s1.236-1.924 3.334-1.325c2.098.597 2.263 2.919 2.263 2.919l-5.597-1.594Z" fill="#2EAD33"/><path d="M12.589 22.144 8.94 23.178s.396-2.258 3.085-3.153L9.958 12.27l-.178.054c-2.563.691-4.634.508-5.499.358-1.225-.211-1.866-.481-1.806.452.052.822.248 2.096.697 3.78.97 3.645 4.177 10.669 10.238 9.037l.179-.056-1-3.751Zm-7.091-5.18 4.307-1.135s-.125 1.657-1.74 2.083c-1.615.425-2.567-.948-2.567-.948Z" fill="#D65348"/><path d="m20.274 24.225-.167-.041c-3.691-1.081-4.261-4.025-4.261-4.025l5.114 1.429 2.707-10.403-.032-.008c-3.321-.89-5.524-2.445-6.397-3.176C16 6.964 15.456 6.244 14.92 7.334c-.473.961-1.078 2.525-1.664 4.714-1.271 4.741-2.22 14.746 5.632 16.851l.161.036 1.225-4.71Zm-5.289-8.677s1.237-1.925 3.336-1.328c2.1.597 2.263 2.918 2.263 2.918l-5.599-1.59Z" fill="#1D8D22"/><path d="m12.775 22.091-.979.277c.232 1.304.639 2.555 1.279 3.66.111-.025.222-.046.335-.077.297-.08.573-.18.838-.288-.715-1.061-1.187-2.282-1.473-3.572Zm-.382-9.18c-.503 1.877-.953 4.578-.829 7.288.222-.096.456-.186.716-.259l.181-.041c-.221-2.894.257-5.844.795-7.851.136-.508.273-.98.409-1.42-.22.139-.456.283-.725.43-.182.56-.365 1.173-.547 1.853Z" fill="#C04B41"/></svg>
