<svg xmlns="http://www.w3.org/2000/svg" width="36" height="36" viewBox="0 0 190 190"><g fill="none" fill-rule="evenodd"><path d="M150.276 61.344c3.093-14.981 3.756-26.471 1.757-34.815-1.189-4.962-3.362-9.01-6.668-11.931-3.489-3.083-7.901-4.596-12.858-4.596-8.178 0-16.775 3.725-25.963 10.802-3.747 2.887-7.636 6.366-11.676 10.44a8.758 8.758 0 0 0-1.089-1.163c-11.42-10.166-21.034-16.482-29.257-18.917-4.89-1.448-9.481-1.586-13.661-.181-4.413 1.483-7.929 4.55-10.409 8.845-4.094 7.089-5.174 16.403-3.648 27.904.623 4.688 1.686 9.794 3.189 15.327a8.722 8.722 0 0 0-1.698.381c-14.489 4.796-24.749 9.954-30.96 15.848C3.639 82.795 1.226 86.7.354 91.022c-.921 4.562-.023 9.137 2.454 13.429 4.087 7.079 11.6 12.661 22.304 17.083 4.298 1.776 9.161 3.384 14.595 4.83a8.688 8.688 0 0 0-.569 1.776c-3.093 14.981-3.757 26.471-1.757 34.814 1.188 4.962 3.362 9.01 6.667 11.931 3.49 3.083 7.902 4.596 12.859 4.596 8.178 0 16.775-3.725 25.963-10.802 3.787-2.917 7.719-6.44 11.805-10.57.42.656.936 1.267 1.546 1.81 11.42 10.166 21.034 16.482 29.257 18.917 4.89 1.448 9.481 1.586 13.661.181 4.413-1.483 7.929-4.55 10.409-8.845 4.094-7.089 5.174-16.403 3.648-27.904-.645-4.857-1.764-10.164-3.354-15.929a8.732 8.732 0 0 0 1.863-.398c14.489-4.797 24.749-9.955 30.96-15.849 3.696-3.507 6.109-7.412 6.981-11.734.921-4.562.023-9.137-2.454-13.429-4.087-7.079-11.6-12.661-22.304-17.083-4.427-1.828-9.452-3.479-15.082-4.959.201-.49.359-1.006.47-1.543Z" fill="#002C4B" fill-rule="nonzero"/><path d="M80.397 64h29.211a5 5 0 0 1 4.337 2.512l14.632 25.5a5 5 0 0 1 0 4.976l-14.632 25.5a5 5 0 0 1-4.337 2.512H80.397a5 5 0 0 1-4.337-2.512l-14.632-25.5a5 5 0 0 1 0-4.976l14.632-25.5A5 5 0 0 1 80.397 64Zm25.591 6.277a5 5 0 0 1 4.338 2.513l11.017 19.224a4.997 4.997 0 0 1 0 4.972l-11.017 19.224a5 5 0 0 1-4.338 2.513H84.017a5 5 0 0 1-4.338-2.513L68.662 96.986a4.997 4.997 0 0 1 0-4.972L79.679 72.79a5 5 0 0 1 4.338-2.513h21.971Zm-3.907 6.864H87.924a5 5 0 0 0-4.335 2.51l-7.1 12.358a5.001 5.001 0 0 0 0 4.982l7.1 12.358a5 5 0 0 0 4.335 2.51h14.157a5 5 0 0 0 4.335-2.51l7.1-12.358a5.001 5.001 0 0 0 0-4.982l-7.1-12.358a5 5 0 0 0-4.335-2.51Zm-3.762 6.571a5 5 0 0 1 4.334 2.506l3.331 5.788a5.003 5.003 0 0 1 0 4.988l-3.331 5.788a5 5 0 0 1-4.334 2.506h-6.633a5 5 0 0 1-4.334-2.506l-3.33-5.788a4.998 4.998 0 0 1 0-4.988l3.33-5.788a5 5 0 0 1 4.334-2.506h6.633Zm-3.315 6.473a4.317 4.317 0 0 0-3.741 6.473 4.316 4.316 0 0 0 3.738 2.157 4.317 4.317 0 0 0 3.741-6.473 4.316 4.316 0 0 0-3.738-2.157ZM60 94.501h7.768" fill="#FFD94C"/><path d="M54.86 108.358a2.714 2.714 0 0 1 3.718 1.041l.475.845a269.116 269.116 0 0 0 11.888 19.191c4.867 7.15 10.341 14.389 16.421 21.716a2.775 2.775 0 0 1-.296 3.847l-.612.537c-20.107 17.568-33.176 21.078-39.206 10.527-5.898-10.319-3.764-29.079 6.403-56.279a2.752 2.752 0 0 1 1.209-1.425Zm85.674 20.684a2.708 2.708 0 0 1 3.126 2.152l.153.792c4.969 26.009 1.47 39.014-10.497 39.014-11.706 0-26.607-11.091-44.703-33.273a2.724 2.724 0 0 1-.613-1.745 2.713 2.713 0 0 1 2.731-2.694l.954.007c7.621.041 15.029-.223 22.226-.794 8.498-.673 17.373-1.826 26.623-3.459Zm6.875-55.23c.523-1.409 2.099-2.149 3.546-1.663l.788.266c25.841 8.803 35.659 18.477 29.455 29.022-6.068 10.314-23.714 17.823-52.936 22.527a2.855 2.855 0 0 1-1.879-.345 2.726 2.726 0 0 1-.994-3.772l.5-.837c3.988-6.694 7.592-13.356 10.813-19.986 3.803-7.829 7.372-16.233 10.707-25.212Zm-85.671-7.776a2.855 2.855 0 0 1 1.879.345 2.726 2.726 0 0 1 .994 3.772l-.5.837c-3.988 6.694-7.592 13.356-10.813 19.986-3.803 7.829-7.372 16.233-10.707 25.212-.523 1.409-2.099 2.149-3.546 1.663l-.788-.266C12.416 108.782 2.598 99.108 8.802 88.563 14.87 78.249 32.516 70.74 61.738 66.036Zm41.808-31.571c20.107-17.568 33.176-21.078 39.206-10.527 5.898 10.319 3.764 29.079-6.403 56.279a2.752 2.752 0 0 1-1.209 1.425 2.714 2.714 0 0 1-3.718-1.041l-.475-.845a269.116 269.116 0 0 0-11.888-19.191c-4.867-7.15-10.341-14.389-16.421-21.716a2.775 2.775 0 0 1 .296-3.847ZM57.684 18c11.706 0 26.607 11.091 44.703 33.273.402.492.618 1.11.613 1.745a2.713 2.713 0 0 1-2.731 2.694l-.954-.007c-7.621-.041-15.029.223-22.226.794-8.498.673-17.373 1.826-26.623 3.459a2.708 2.708 0 0 1-3.126-2.152l-.153-.792C42.218 31.005 45.717 18 57.684 18Z" fill="#FF4154"/></g></svg>
