<svg xmlns="http://www.w3.org/2000/svg" width="36" height="35.823" fill-rule="evenodd" viewBox="0 0 36 35.823"><path d="M28.019 1.507c1.788 0 3.406.725 4.578 1.896s1.896 2.79 1.896 4.578v19.861a6.457 6.457 0 0 1-1.896 4.578 6.454 6.454 0 0 1-4.578 1.896H7.981c-1.788 0-3.406-.725-4.578-1.896s-1.896-2.791-1.896-4.578V7.981c0-1.788.725-3.406 1.896-4.578a6.454 6.454 0 0 1 4.578-1.896z" stroke="#fff" stroke-width="3.015" fill="#ec5990"/><path d="M23.654 9.151h-3.701c-.271-.845-1.061-1.419-1.952-1.419s-1.681.574-1.952 1.419h-3.703a2.633 2.633 0 0 0-2.64 2.627v13.687a2.633 2.633 0 0 0 2.64 2.627h11.309a2.633 2.633 0 0 0 2.64-2.627V11.778a2.633 2.633 0 0 0-2.64-2.627zm-7.42.478a.239.239 0 0 0 .24-.189c.157-.718.796-1.229 1.534-1.229s1.376.512 1.534 1.229a.239.239 0 0 0 .24.189h1.291v1.564a.717.717 0 0 1-.72.716H15.66a.718.718 0 0 1-.72-.716V9.629h1.294zm9.581 15.836a2.154 2.154 0 0 1-2.16 2.149H12.346a2.154 2.154 0 0 1-2.16-2.149V11.778c0-1.187.967-2.149 2.16-2.149h2.114v1.564c0 .66.537 1.194 1.2 1.194h4.68c.663 0 1.2-.535 1.2-1.194V9.629h2.114c1.193 0 2.16.962 2.16 2.149v13.687zm-2.63-8.509h-4.224a.239.239 0 0 0-.24.239.239.239 0 0 0 .24.239h4.224a.239.239 0 0 0 .24-.239.239.239 0 0 0-.24-.239zm-6.24 0H12.72a.239.239 0 0 0-.24.239.239.239 0 0 0 .24.239h4.224a.239.239 0 0 0 .24-.239.239.239 0 0 0-.24-.239zm6.252 5.779h-4.236a.239.239 0 0 0-.24.239.239.239 0 0 0 .24.239h4.235a.239.239 0 0 0 .24-.239.239.239 0 0 0-.24-.239zm-6.24 0H12.72a.239.239 0 0 0-.24.239.239.239 0 0 0 .24.239h4.236a.239.239 0 0 0 .24-.239.239.239 0 0 0-.24-.239z" fill="#fff"/></svg>
