<svg xmlns="http://www.w3.org/2000/svg" viewBox="0 0 36 36" width="36" height="36"><g fill="#764ABC"><path d="M23.616 23.544a2.016 2.016 0 0 0 1.8-2.088 2.022 2.022 0 0 0-2.016-1.944h-.072a2.014 2.014 0 0 0-1.944 2.088c.036.54.252 1.008.576 1.332-1.224 2.412-3.096 4.176-5.904 5.652-1.908 1.008-3.888 1.368-5.868 1.116-1.62-.216-2.88-.936-3.672-2.124-1.152-1.764-1.26-3.672-.288-5.58.684-1.368 1.764-2.376 2.448-2.88-.144-.468-.36-1.26-.468-1.836-5.22 3.78-4.68 8.892-3.096 11.304 1.188 1.8 3.6 2.916 6.264 2.916.72 0 1.44-.072 2.16-.252 4.608-.9 8.1-3.636 10.08-7.704z"/><path d="M29.952 19.08c-2.736-3.204-6.768-4.968-11.376-4.968H18a1.978 1.978 0 0 0-1.764-1.08h-.072a2.014 2.014 0 0 0-1.944 2.088 2.022 2.022 0 0 0 2.016 1.944h.072a2.028 2.028 0 0 0 1.764-1.224h.648c2.736 0 5.328.792 7.668 2.34 1.8 1.188 3.096 2.736 3.816 4.608.612 1.512.576 2.988-.072 4.248-1.008 1.908-2.7 2.952-4.932 2.952-1.44 0-2.808-.432-3.528-.756-.396.36-1.116.936-1.62 1.296 1.548.72 3.132 1.116 4.644 1.116 3.456 0 6.012-1.908 6.984-3.816 1.044-2.088.972-5.688-1.728-8.748z"/><path d="M11.664 24.156A2.022 2.022 0 0 0 13.68 26.1h.072a2.014 2.014 0 0 0 1.944-2.088 2.022 2.022 0 0 0-2.016-1.944h-.072c-.072 0-.18 0-.252.036-1.476-2.448-2.088-5.112-1.872-7.992.144-2.16.864-4.032 2.124-5.58 1.044-1.332 3.06-1.98 4.428-2.016 3.816-.072 5.436 4.68 5.544 6.588.468.108 1.26.36 1.8.54-.432-5.832-4.032-8.856-7.488-8.856-3.24 0-6.228 2.34-7.416 5.796-1.656 4.608-.576 9.036 1.44 12.528-.18.252-.288.648-.252 1.044z"/></g></svg>
