<svg xmlns="http://www.w3.org/2000/svg" fill="none" height="36" viewBox="0 0 36" width="36"><path fill="#3178c6" d="M3.516 0h28.968A3.516 3.516 0 0 1 36 3.516v28.968A3.516 3.516 0 0 1 32.484 36H3.516A3.516 3.516 0 0 1 0 32.484V3.516A3.516 3.516 0 0 1 3.516 0z"/><path fill="#3178c6" d="M3.516 0h28.968A3.516 3.516 0 0 1 36 3.516v28.968A3.516 3.516 0 0 1 32.484 36H3.516A3.516 3.516 0 0 1 0 32.484V3.516A3.516 3.516 0 0 1 3.516 0z"/><path clip-rule="evenodd" d="M22.285 28.647v3.52c.572.293 1.249.513 2.03.66s1.605.22 2.47.22c.844 0 1.645-.081 2.404-.242.759-.161 1.425-.427 1.997-.797.572-.37 1.025-.854 1.359-1.452s.501-1.336.501-2.216c0-.638-.095-1.197-.286-1.677s-.466-.907-.825-1.281c-.359-.374-.79-.71-1.293-1.007s-1.069-.577-1.7-.841a21.866 21.866 0 0 1-1.243-.555 6.281 6.281 0 0 1-.935-.55 2.386 2.386 0 0 1-.594-.594 1.254 1.254 0 0 1-.209-.71c0-.242.062-.46.187-.654s.301-.361.528-.5c.227-.139.506-.247.836-.324a4.85 4.85 0 0 1 1.1-.115 7.463 7.463 0 0 1 1.915.269c.33.092.651.207.963.346.312.139.6.301.864.484v-3.289c-.535-.205-1.121-.357-1.755-.456s-1.363-.149-2.184-.149c-.836 0-1.629.09-2.377.27s-1.407.46-1.975.841a4.192 4.192 0 0 0-1.348 1.458c-.33.59-.495 1.296-.495 2.117 0 1.049.303 1.943.908 2.684.605.741 1.524 1.368 2.757 1.881.484.198.935.392 1.354.583s.779.389 1.084.594c.304.205.545.429.721.671.176.242.264.517.264.825 0 .227-.055.438-.165.632s-.277.363-.501.506-.503.255-.836.335a5.01 5.01 0 0 1-1.172.121 6.78 6.78 0 0 1-4.347-1.605zm-5.917-8.672h4.515v-2.889H8.297v2.889h4.493v12.861h3.577z" fill="#fff" fill-rule="evenodd"/></svg>
