<svg xmlns="http://www.w3.org/2000/svg" width="36" height="36" viewBox="0 0 165.002 165.002" fill="none"><g filter="url(#a)" clip-path="url(#b)"><path d="m120.833 57.251-36.137 52.256a3.147 3.147 0 0 1-1.579 1.176 3.058 3.058 0 0 1-1.973 0 3.07 3.07 0 0 1-1.571-1.184 3.11 3.11 0 0 1-.54-1.893l1.45-28.847-23.345-4.954a3.039 3.039 0 0 1-1.353-.661 3.026 3.026 0 0 1-.886-1.216 3.12 3.12 0 0 1-.202-1.49c.065-.5.242-.983.532-1.402L91.366 16.78a3.15 3.15 0 0 1 1.579-1.176 3.087 3.087 0 0 1 3.544 1.192c.379.556.572 1.216.532 1.885l-1.442 28.847 23.345 4.954c.5.105.967.33 1.353.661.395.33.693.749.887 1.216.185.475.249.983.193 1.49a2.997 2.997 0 0 1-.524 1.402Z" fill="#FCC72B"/><path d="M82.988 153.346a7.413 7.413 0 0 1-2.803-.556 7.507 7.507 0 0 1-2.376-1.587l-34.14-34.148a7.31 7.31 0 0 1-2.135-5.171 7.347 7.347 0 0 1 2.143-5.164 7.349 7.349 0 0 1 5.164-2.143 7.31 7.31 0 0 1 5.171 2.135l28.976 28.968 63.116-63.116a7.321 7.321 0 0 1 5.163-2.102 7.309 7.309 0 0 1 5.14 2.143 7.307 7.307 0 0 1 2.151 5.147c0 1.925-.75 3.778-2.103 5.156L88.16 151.203a7.343 7.343 0 0 1-2.376 1.587 7.409 7.409 0 0 1-2.796.556Z" fill="#729B1B"/><path d="M82.956 153.346a7.44 7.44 0 0 0 2.803-.556 7.389 7.389 0 0 0 2.369-1.587l34.147-34.148a7.305 7.305 0 0 0 2.135-5.171 7.343 7.343 0 0 0-2.143-5.164 7.347 7.347 0 0 0-5.163-2.143 7.31 7.31 0 0 0-5.172 2.135L82.956 135.68 19.841 72.564a7.324 7.324 0 0 0-10.311.041 7.325 7.325 0 0 0-2.143 5.147 7.32 7.32 0 0 0 2.102 5.156l68.295 68.295a7.4 7.4 0 0 0 2.369 1.587 7.475 7.475 0 0 0 2.803.556Z" fill="#729B1B" fill-opacity=".5"/></g><defs><clipPath id="b"><path fill="#fff" d="M0 0h165.002v165.002H0V0z"/></clipPath><filter id="a" x="1.39" y="10.443" width="167.163" height="153.9" filterUnits="userSpaceOnUse" color-interpolation-filters="sRGB"><feFlood flood-opacity="0" result="BackgroundImageFix"/><feColorMatrix in="SourceAlpha" values="0 0 0 0 0 0 0 0 0 0 0 0 0 0 0 0 0 0 127 0" result="hardAlpha"/><feOffset dx="2" dy="3"/><feGaussianBlur stdDeviation="4"/><feComposite in2="hardAlpha" operator="out"/><feColorMatrix values="0 0 0 0 0.108333 0 0 0 0 0.108333 0 0 0 0 0.108333 0 0 0 0.2 0"/><feBlend in2="BackgroundImageFix" result="effect1_dropShadow_301_2"/><feBlend in="SourceGraphic" in2="effect1_dropShadow_301_2" result="shape"/></filter></defs></svg>
